<svg width="64" height="64" viewBox="0 0 64 64" fill="none" xmlns="http://www.w3.org/2000/svg">
  <!-- Background circle -->
  <circle cx="32" cy="32" r="30" fill="#2563eb" stroke="#1e40af" stroke-width="2"/>
  
  <!-- Ticket shape -->
  <rect x="16" y="20" width="32" height="20" rx="2" fill="white"/>
  
  <!-- Ticket perforations -->
  <circle cx="16" cy="30" r="2" fill="#2563eb"/>
  <circle cx="48" cy="30" r="2" fill="#2563eb"/>
  
  <!-- Ticket details lines -->
  <line x1="20" y1="25" x2="44" y2="25" stroke="#6b7280" stroke-width="1"/>
  <line x1="20" y1="28" x2="36" y2="28" stroke="#6b7280" stroke-width="1"/>
  <line x1="20" y1="32" x2="40" y2="32" stroke="#6b7280" stroke-width="1"/>
  <line x1="20" y1="35" x2="32" y2="35" stroke="#6b7280" stroke-width="1"/>
  
  <!-- Security shield -->
  <path d="M32 42 L28 46 L32 50 L36 46 Z" fill="#10b981"/>
  <path d="M32 44 L30 46 L32 48 L34 46 Z" fill="white"/>
  
  <!-- Lock icon in shield -->
  <rect x="31" y="45" width="2" height="2" fill="#10b981"/>
  <path d="M30.5 44.5 C30.5 44 31 43.5 32 43.5 C33 43.5 33.5 44 33.5 44.5" stroke="#10b981" stroke-width="0.5" fill="none"/>
</svg>